<svg xmlns="http://www.w3.org/2000/svg" xmlns:xlink="http://www.w3.org/1999/xlink" width="469" height="62" viewBox="0 0 469 62">
  <defs>
    <clipPath id="clip-HomeBigLogo">
      <rect width="469" height="62"/>
    </clipPath>
  </defs>
  <g id="HomeBigLogo" clip-path="url(#clip-HomeBigLogo)">
    <rect width="469" height="62" fill="#fff"/>
    <g id="Group_1" data-name="Group 1" transform="translate(13 2)">
      <g id="XMLID_64_" transform="translate(100.765 32.728)">
        <path id="XMLID_67_" d="M53.853,32.029a3.89,3.89,0,0,1-2.948-1.105A4.334,4.334,0,0,1,49.8,27.791a5.1,5.1,0,0,1,.184-1.658,9.122,9.122,0,0,1,.737-2.4A9.258,9.258,0,0,1,52.2,21.527a8.181,8.181,0,0,1,2.027-1.474,5.674,5.674,0,0,1,2.4-.553,5.1,5.1,0,0,1,2.4.553,3.277,3.277,0,0,1,1.29,1.474,6.872,6.872,0,0,1,.369,2.211,12.679,12.679,0,0,1-.369,2.4,12.324,12.324,0,0,1-1.29,3.132A5.857,5.857,0,0,1,56.8,31.292,5.023,5.023,0,0,1,53.853,32.029Zm-1.842-3.685a2.964,2.964,0,0,0,.553,2.027,2.335,2.335,0,0,0,1.658.737A3.185,3.185,0,0,0,56.433,30a8.271,8.271,0,0,0,1.474-3.132,12.52,12.52,0,0,0,.553-3.5,3.31,3.31,0,0,0-.553-2.027,2.335,2.335,0,0,0-1.658-.737,2.627,2.627,0,0,0-2.211,1.105,8.271,8.271,0,0,0-1.474,3.132A14.881,14.881,0,0,0,52.011,28.344Z" transform="translate(-49.8 -13.972)" fill="#cb9700" stroke="#cb9700" stroke-width="0.5"/>
        <path id="XMLID_65_" d="M60.433,34.556a10.02,10.02,0,0,1-1.29,3.132A5.226,5.226,0,0,1,57.3,39.347a5.351,5.351,0,0,1-2.579.553,1.381,1.381,0,0,1-.921-.184l.368-1.105a7.98,7.98,0,0,0,.921.184A2.337,2.337,0,0,0,56.2,38.61c.184-.184.553-.369.737-.553a10.914,10.914,0,0,0,.737-1.105,14.949,14.949,0,0,0,.553-2.027l2.211-9.4H58.959l.184-.553a7.98,7.98,0,0,0,.921-.184.4.4,0,0,0,.368-.369c.184-.184.184-.368.368-.553,0-.184.553-2.4.737-2.948a6.019,6.019,0,0,1,2.027-3.316,5.312,5.312,0,0,1,3.5-1.106,6.908,6.908,0,0,1,2.027.184l-.553,2.027H67.434a7.682,7.682,0,0,0-.368-1.105,1.4,1.4,0,0,0-.737-.369,2.663,2.663,0,0,0-1.29.369c-.368.184-.553.553-.921,1.105a13.994,13.994,0,0,1-.737,2.027l-.737,3.132H74.067l-.184,1.29H62.46Z" transform="translate(-46.43 -16.5)" fill="#cb9700" stroke="#cb9700" stroke-width="0.5"/>
      </g>
      <g id="XMLID_50_" transform="translate(102.179 9.618)">
        <path id="XMLID_63_" d="M50.5,4.4V21.167h1.843V13.981H63.766V12.138H52.342v-5.9H64.871V4.4Z" transform="translate(-50.5 -4.216)" fill="#002856" stroke="#002856" stroke-width="1"/>
        <path id="XMLID_62_" d="M61.1,4.4V21.167H73.445V19.508H63.127v-5.9h9.212V11.954H63.127v-5.9H73.445V4.4Z" transform="translate(-41.57 -4.216)" fill="#002856" stroke="#002856" stroke-width="1"/>
        <path id="XMLID_59_" d="M70.6,4.4h5.9c5.343,0,9.028,3.685,9.028,8.291h0c0,4.79-3.685,8.475-9.028,8.475H70.6Zm1.843,1.842V19.508h3.869c4.238,0,7-2.948,7-6.633h0c0-3.685-2.764-6.633-7-6.633Z" transform="translate(-33.566 -4.216)" fill="#002856" stroke="#002856" stroke-width="1"/>
        <path id="XMLID_58_" d="M81.2,4.4V21.167H93.545V19.508H83.227v-5.9h9.028V11.954H83.227v-5.9H93.36V4.4Z" transform="translate(-24.635 -4.216)" fill="#002856" stroke="#002856" stroke-width="1"/>
        <path id="XMLID_55_" d="M91.4,4.4h7.186a6.583,6.583,0,0,1,4.79,1.658,4.912,4.912,0,0,1,1.29,3.316h0c0,2.764-1.842,4.422-4.606,4.975l5.159,6.817h-2.4l-4.606-6.449H93.427v6.633H91.584V4.4Zm7.186,8.66c2.58,0,4.238-1.29,4.238-3.5h0c0-2.027-1.658-3.316-4.238-3.316H93.427V13.06Z" transform="translate(-16.042 -4.216)" fill="#002856" stroke="#002856" stroke-width="1"/>
        <path id="XMLID_52_" d="M108.775,6.511l3.869,8.475h-7.738ZM108.038,4.3,100.3,21.251h2.027l2.027-4.422h9.212l2.027,4.422h2.027L109.881,4.3Z" transform="translate(-8.544 -4.3)" fill="#002856" stroke="#002856" stroke-width="1"/>
        <path id="XMLID_51_" d="M111.3,4.4V21.167h11.423V19.508h-9.4V4.4Z" transform="translate(0.724 -4.216)" fill="#002856" stroke="#002856" stroke-width="1"/>
      </g>
      <g id="XMLID_35_" transform="translate(240.839 9.806)">
        <g id="XMLID_46_" transform="translate(0 0.184)">
          <path id="XMLID_47_" d="M125.584,4.5h7.186a6.583,6.583,0,0,1,4.791,1.658,4.912,4.912,0,0,1,1.29,3.316h0c0,2.764-1.842,4.422-4.606,4.975l5.159,6.817h-2.4l-4.975-6.633h-4.79v6.633H125.4V4.5Zm7,8.66c2.579,0,4.238-1.29,4.238-3.5h0c0-2.027-1.658-3.316-4.238-3.316h-5.159V13.16Z" transform="translate(-125.4 -4.5)" fill="#002856" stroke="#002856" stroke-width="1"/>
        </g>
        <path id="XMLID_45_" d="M136.1,4.5h12.16V6.158H137.942v5.9h9.212v1.658h-9.212v5.9h10.5v1.658H136.1Z" transform="translate(-116.385 -4.316)" fill="#002856" stroke="#002856" stroke-width="1"/>
        <g id="XMLID_43_" transform="translate(37.218)">
          <path id="XMLID_44_" d="M145.6,18.956l1.106-1.474a7.953,7.953,0,0,0,5.712,2.4c2.211,0,3.685-1.29,3.685-2.948h0c0-1.474-.921-2.4-4.422-3.132-3.869-.921-5.712-2.027-5.712-4.79h0c0-2.579,2.4-4.606,5.528-4.606a9.143,9.143,0,0,1,5.9,2.027L156.286,7.9A7.489,7.489,0,0,0,151.5,6.058c-2.211,0-3.5,1.29-3.5,2.764h0c0,1.658.921,2.4,4.606,3.316,3.685.737,5.527,2.211,5.527,4.79h0c0,2.948-2.4,4.79-5.712,4.79a9.462,9.462,0,0,1-6.817-2.764" transform="translate(-145.6 -4.4)" fill="#002856" stroke="#002856" stroke-width="1"/>
        </g>
        <path id="XMLID_42_" d="M156.2,4.5H168.36V6.158H158.042v5.9h9.212v1.658h-9.212v5.9h10.5v1.658H156.2Z" transform="translate(-99.451 -4.316)" fill="#002856" stroke="#002856" stroke-width="1"/>
        <g id="XMLID_38_" transform="translate(75.358 0.184)">
          <path id="XMLID_39_" d="M166.484,4.5h7.186a6.583,6.583,0,0,1,4.791,1.658,4.912,4.912,0,0,1,1.29,3.316h0c0,2.764-1.842,4.422-4.606,4.975l5.159,6.817h-2.4l-4.975-6.633h-4.79v6.633H166.3V4.5Zm7,8.66c2.579,0,4.238-1.29,4.238-3.5h0c0-2.027-1.658-3.316-4.238-3.316h-5.159V13.16Z" transform="translate(-166.3 -4.5)" fill="#002856" stroke="#002856" stroke-width="1"/>
        </g>
        <path id="XMLID_37_" d="M175.3,4.5h2.027l6.08,14.556L189.3,4.5h2.027l-7.186,16.951h-1.658Z" transform="translate(-83.359 -4.316)" fill="#002856" stroke="#002856" stroke-width="1"/>
        <path id="XMLID_36_" d="M186.3,4.5V21.267h11.055V19.608h-9.212v-5.9h8.475V12.054h-8.475v-5.9h9.212V4.5Z" transform="translate(-74.092 -4.316)" fill="#002856" stroke="#002856" stroke-width="1"/>
      </g>
      <g id="XMLID_24_" transform="translate(379.089 10.18)">
        <g id="XMLID_30_">
          <path id="XMLID_31_" d="M200.2,4.6h7.186a6.383,6.383,0,0,1,4.422,1.474,3.75,3.75,0,0,1,1.105,2.764h0a3.957,3.957,0,0,1-2.579,3.869c2.027.553,3.685,1.842,3.685,4.053h0c0,2.948-2.4,4.606-6.08,4.606h-7.554V4.6Zm10.686,4.606c0-1.658-1.29-2.764-3.685-2.764h-5.159v5.712h4.975c2.211,0,3.869-.921,3.869-2.948Zm-3.5,4.606h-5.343v5.9h5.712c2.579,0,4.053-1.105,4.053-2.948h0c0-1.843-1.474-2.948-4.422-2.948" transform="translate(-200.2 -4.6)" fill="#002856" stroke="#002856" stroke-width="1"/>
        </g>
        <path id="XMLID_27_" d="M217.554,4.6H219.4l7.738,16.951h-2.027l-2.027-4.422h-9.212l-2.027,4.422H210Zm4.79,10.686-3.869-8.475-3.869,8.475Z" transform="translate(-191.943 -4.6)" fill="#002856" stroke="#002856" stroke-width="1"/>
        <path id="XMLID_26_" d="M222.1,4.6h1.658l10.687,13.634V4.6h1.842V21.551h-1.474L223.942,7.732V21.551H222.1Z" transform="translate(-181.749 -4.6)" fill="#002856" stroke="#002856" stroke-width="1"/>
        <path id="XMLID_25_" d="M233.6,4.6h2.027V14.734L245.208,4.6h2.4l-7.186,7.37,7.554,9.581h-2.4l-6.449-8.107-3.5,3.5v4.606H233.6Z" transform="translate(-172.06 -4.6)" fill="#002856" stroke="#002856" stroke-width="1"/>
      </g>
      <g id="XMLID_10_" transform="translate(133.822 33.649)">
        <g id="XMLID_22_" transform="translate(0 0.184)">
          <path id="XMLID_23_" d="M67.6,31.656l1.105-1.474a7.953,7.953,0,0,0,5.712,2.4c2.211,0,3.685-1.29,3.685-2.948h0c0-1.474-.921-2.4-4.422-3.132-3.869-.921-5.712-2.027-5.712-4.79h0c0-2.579,2.4-4.606,5.527-4.606a9.143,9.143,0,0,1,5.9,2.027L78.655,20.6a7.141,7.141,0,0,0-4.791-1.843c-2.211,0-3.5,1.29-3.5,2.764h0c0,1.658.921,2.4,4.606,3.316,3.685.737,5.527,2.211,5.527,4.79h0c0,2.948-2.4,4.79-5.712,4.79A10.017,10.017,0,0,1,67.6,31.656" transform="translate(-67.6 -17.1)" fill="#002856" stroke="#002856" stroke-width="1"/>
        </g>
        <path id="XMLID_21_" d="M76.3,17.2v1.842h4.975V33.967H83.3V19.042h4.79V17.2Z" transform="translate(-60.27 -16.831)" fill="#002856" stroke="#002856" stroke-width="1"/>
        <path id="XMLID_20_" d="M89.9,17.2V33.967h11.423V32.308H91.742V17.2Z" transform="translate(-48.812 -16.831)" fill="#002856" stroke="#002856" stroke-width="1"/>
        <g id="XMLID_15_" transform="translate(54.354)">
          <path id="XMLID_17_" d="M97.1,25.844h0A8.685,8.685,0,0,1,105.76,17a8.377,8.377,0,0,1,8.475,8.66h0a8.532,8.532,0,0,1-8.66,8.66c-5.159.184-8.475-3.869-8.475-8.476m15.108,0h0a6.643,6.643,0,1,0-13.266,0h0a6.693,6.693,0,0,0,6.633,7,6.8,6.8,0,0,0,6.633-7" transform="translate(-97.1 -17)" fill="#002856" stroke="#002856" stroke-width="1"/>
          <path id="XMLID_16_" d="M108.9,26.965V17.2h1.842v9.765c0,3.685,2.027,5.712,5.159,5.712s5.159-1.842,5.159-5.527V17.384H122.9v9.581c0,4.975-2.764,7.37-7,7.37s-7-2.579-7-7.37" transform="translate(-87.158 -16.831)" fill="#002856" stroke="#002856" stroke-width="1"/>
        </g>
        <rect id="XMLID_14_" width="1.842" height="16.767" transform="translate(96.178 0.369)" fill="#002856" stroke="#002856" stroke-width="1"/>
        <g id="XMLID_11_" transform="translate(27.822 0.184)">
          <path id="XMLID_13_" d="M124.1,31.656l1.106-1.474a7.953,7.953,0,0,0,5.712,2.4c2.211,0,3.685-1.29,3.685-2.948h0c0-1.474-.921-2.4-4.422-3.132-3.869-.921-5.712-2.027-5.712-4.79h0c0-2.579,2.4-4.606,5.528-4.606a9.143,9.143,0,0,1,5.9,2.027L134.786,20.6A7.141,7.141,0,0,0,130,18.758c-2.211,0-3.5,1.29-3.5,2.764h0c0,1.658.921,2.4,4.606,3.316,3.685.737,5.527,2.211,5.527,4.79h0c0,2.948-2.4,4.79-5.712,4.79a9.774,9.774,0,0,1-6.817-2.764" transform="translate(-47.821 -17.1)" fill="#002856" stroke="#002856" stroke-width="1"/>
          <path id="XMLID_12_" d="M84.911,26.305a1.106,1.106,0,1,0-1.106,1.106,1.062,1.062,0,0,0,1.106-1.106" transform="translate(-82.7 -10.276)" fill="#002856" stroke="#002856" stroke-width="1"/>
        </g>
      </g>
      <g id="Group_384" data-name="Group 384" transform="translate(-13 -2)">
        <g id="XMLID_1_">
          <path id="XMLID_7_" d="M55.712,18.8c-8.379-3.4-29.441-7.247-37.141-8.832C8.606,7.927,1.585.906.906.226h0C.679,0,.679,0,.453,0A.487.487,0,0,0,0,.453V.679c1.812,6.341,7.927,16.079,16.759,18.8,9.738,2.944,31.48,5.662,38.727,8.832,6.568,2.944,8.153,4.3,8.153,4.3C66.13,22.421,55.712,18.8,55.712,18.8Z" fill="#cb9700"/>
          <path id="XMLID_6_" d="M59.144,25.412c-6.568-6.341-29.668-9.285-40.312-11.1C8.868,12.729,3.885,8.879,3.206,8.426c0-.226-.226-.226-.453-.226a.487.487,0,0,0-.453.453v.226s5.209,12.682,19.024,15.4c10.418,2.038,21.968,4.3,26.95,5.209,9.059,1.585,13.815,6.568,14.268,12.229a12.213,12.213,0,0,1-1.359,6.341c-.453.906.453,1.359.906.226C69.109,34.471,59.144,25.412,59.144,25.412Z" transform="translate(2.909 11.223)" fill="#cb9700"/>
          <path id="XMLID_2_" d="M62.118,25.282a1.712,1.712,0,0,0-.226-.906c0-.226-.226-.453-.453-.679a4.627,4.627,0,0,0-1.132-1.132,28.552,28.552,0,0,0-3.4-1.132s-.679-1.812-4.529-3.624A40.057,40.057,0,0,0,28.6,14.864c10.644,10.191,3.171,26.044,2.718,26.5v.226a.487.487,0,0,0,.453.453c.226,0,.226-.226.453-.226,1.812-2.944,4.529-7.021,6.568-8.832a20.62,20.62,0,0,1,7.927-4.756c1.132-.453,2.265-.453,3.624-.906,3.4-.453,7.927-.679,8.379-.453h.226a3.273,3.273,0,0,1,1.585.453c.453.226.453.679.453,1.132,0,.226.453.453.679,0a9.967,9.967,0,0,0,.453-2.265C62.118,26.414,62.344,25.961,62.118,25.282Zm-7.021-3.4-2.038.679A13.934,13.934,0,0,0,48.3,21.432a15.458,15.458,0,0,1,5.209-.226C55.55,21.432,55.1,21.885,55.1,21.885Z" transform="translate(36.171 18.827)" fill="#cb9700"/>
        </g>
        <g id="Group_383" data-name="Group 383" transform="translate(72.018 59.691)">
          <path id="Path_163" data-name="Path 163" d="M34.518,27.157c0,.679-.453,1.132-1.359,1.132A1.268,1.268,0,0,1,31.8,27.157c0-.679.453-1.132,1.359-1.132A1.056,1.056,0,0,1,34.518,27.157Zm-2.038,0a.906.906,0,1,0,.906-.906C32.706,26.025,32.479,26.478,32.479,27.157Zm.679.453h-.226V26.478h.906l.226.226c0,.226,0,.226-.226.226h0a.222.222,0,0,1,.226.226v.226h-.226v-.226c0-.226,0-.226-.226-.226h-.226v.679Zm0-.679h0c.226,0,.453,0,.453-.226a.222.222,0,0,0-.226-.226h-.226v.453Z" transform="translate(-31.8 -25.98)" fill="#cb9700"/>
        </g>
      </g>
    </g>
  </g>
</svg>
